<svg xmlns="http://www.w3.org/2000/svg" width="23" height="22" fill="none" viewBox="0 0 23 22">
  <path fill="#2D3648" d="M11.925 7.024A2 2 0 0 0 9.7 8.332a1 1 0 0 1-1.887-.664 4 4 0 0 1 7.774 1.333c0 1.53-1.135 2.54-1.946 3.081a8.044 8.044 0 0 1-1.686.848l-.034.013-.011.004h-.004l-.002.001-.317-.948.316.949a1 1 0 0 1-.633-1.897l.015-.006a5.901 5.901 0 0 0 .364-.147c.247-.11.569-.271.883-.481.69-.46 1.055-.949 1.055-1.418v-.001a2 2 0 0 0-1.662-1.975ZM11.667 15a1 1 0 1 0 0 2h.01a1 1 0 1 0 0-2h-.01Z"/>
  <path fill="#2D3648" fill-rule="evenodd" d="M.667 11c0-6.075 4.924-11 11-11 6.075 0 11 4.925 11 11s-4.925 11-11 11c-6.076 0-11-4.925-11-11Zm11-9a9 9 0 1 0 0 18 9 9 0 0 0 0-18Z" clip-rule="evenodd"/>
</svg>
