<svg xmlns="http://www.w3.org/2000/svg" width="25" height="24" fill="none" viewBox="0 0 25 24">
  <path fill="#2D3648" fill-rule="evenodd" d="M12.333 8a4 4 0 1 0 0 8 4 4 0 0 0 0-8Zm-2 4a2 2 0 1 1 4 0 2 2 0 0 1-4 0Z" clip-rule="evenodd"/>
  <path fill="#2D3648" fill-rule="evenodd" d="M20.648 15.404 19.733 15l.92.394a.65.65 0 0 1 .593-.394h.087a3 3 0 0 0 0-6h-.167a.65.65 0 0 1-.534-.285 1 1 0 0 0-.064-.199.65.65 0 0 1 .127-.714l.055-.054a3.004 3.004 0 0 0 .651-3.272 3.002 3.002 0 0 0-4.895-.973l-.055.055a.65.65 0 0 1-.714.127l-.01-.004a.65.65 0 0 1-.394-.594V3a3 3 0 0 0-6 0v.167a.65.65 0 0 1-.285.534 1 1 0 0 0-.198.064.65.65 0 0 1-.714-.127l-.055-.055a3 3 0 1 0-4.244 4.244l.054.055a.65.65 0 0 1 .128.714.995.995 0 0 0-.024.059.65.65 0 0 1-.586.425h-.076a3 3 0 1 0 0 6h.168a.65.65 0 0 1 .593.394l.005.01a.65.65 0 0 1-.128.714l-.054.055a3 3 0 0 0 3.27 4.895 3 3 0 0 0 .973-.65l.056-.056a.65.65 0 0 1 .714-.127l.058.023a.651.651 0 0 1 .425.586V21a3 3 0 1 0 6 0v-.168a.65.65 0 0 1 .394-.593l.01-.004a.65.65 0 0 1 .714.127l.055.055a3 3 0 1 0 4.245-4.244l-.056-.055a.65.65 0 0 1-.127-.714ZM11.626 2.293A1 1 0 0 1 13.333 3v.094a2.65 2.65 0 0 0 1.601 2.423 2.65 2.65 0 0 0 2.919-.532l.007-.008.06-.06a1.003 1.003 0 0 1 1.416 0 1 1 0 0 1 0 1.415l-.06.06-.008.009a2.65 2.65 0 0 0-.606 2.729c.012.09.036.18.072.264A2.65 2.65 0 0 0 21.16 11h.173a1 1 0 0 1 0 2h-.094a2.65 2.65 0 0 0-2.423 1.601 2.65 2.65 0 0 0 .533 2.918l.007.008.06.06a1.002 1.002 0 0 1 0 1.416 1 1 0 0 1-1.415 0l-.06-.06-.008-.008a2.65 2.65 0 0 0-2.918-.532 2.65 2.65 0 0 0-1.602 2.423V21a1 1 0 0 1-2 0v-.113a2.65 2.65 0 0 0-1.705-2.415 2.651 2.651 0 0 0-2.894.543l-.008.008-.06.06a1.002 1.002 0 0 1-1.415 0 1 1 0 0 1 0-1.415l.06-.06.007-.009a2.65 2.65 0 0 0 .532-2.918 2.65 2.65 0 0 0-2.423-1.601h-.174a1 1 0 0 1 0-2h.114A2.65 2.65 0 0 0 5.86 9.375a2.65 2.65 0 0 0-.543-2.894l-.008-.008-.06-.06a1.003 1.003 0 0 1 0-1.416 1 1 0 0 1 1.416 0l.06.06.008.008a2.65 2.65 0 0 0 2.729.607 1 1 0 0 0 .264-.073 2.65 2.65 0 0 0 1.606-2.425V3a1 1 0 0 1 .293-.707Z" clip-rule="evenodd"/>
</svg>
